<?xml version="1.0" encoding="UTF-8"?>
<svg fill="none" viewBox="0 0 24 24" xmlns="http://www.w3.org/2000/svg">
<g clip-path="url(#a)">
<path d="m23.118 0.8814c-0.3585-0.36287-0.8046-0.62714-1.2951-0.76728-0.4905-0.14014-1.0088-0.15141-1.5049-0.032716l-16 3.37c-0.92143 0.12637-1.7893 0.50748-2.5058 1.1004-0.71653 0.59293-1.2533 1.3741-1.5498 2.2556-0.29654 0.88151-0.34108 1.8283-0.1286 2.7338 0.21248 0.90548 0.67352 1.7336 1.3312 2.3912l1.718 1.717c0.09298 0.093 0.16672 0.2033 0.217 0.3248s0.0761 0.2517 0.076 0.3832v3.168c0.0022 0.4454 0.10474 0.8846 0.3 1.285l-8e-3 7e-3 0.026 0.026c0.29301 0.5891 0.77158 1.0656 1.362 1.356l0.026 0.026 7e-3 -8e-3c0.40036 0.1953 0.83957 0.2978 1.285 0.3h3.168c0.26505-2e-4 0.51932 0.1048 0.70702 0.292l1.717 1.717c0.4605 0.4656 1.0086 0.8355 1.6128 1.0883 0.6041 0.2528 1.2523 0.3836 1.9072 0.3847 0.5457-7e-4 1.0878-0.0898 1.605-0.264 0.8734-0.2868 1.6493-0.812 2.2402-1.5163s0.9732-1.5597 1.1038-2.4697l3.375-16.035c0.1248-0.50036 0.1175-1.0246-0.0214-1.5212-0.1388-0.49666-0.4044-0.9487-0.7706-1.3118zm-18.519 11.356-1.719-1.717c-0.40028-0.3906-0.68083-0.88735-0.80872-1.4318-0.12788-0.54449-0.0978-1.1142 0.08672-1.6422 0.17889-0.54167 0.5096-1.0206 0.95279-1.3797 0.4432-0.35917 0.98022-0.58348 1.5472-0.64627l15.841-3.335-15.025 15.027v-2.755c0.00151-0.3937-0.07504-0.7837-0.22523-1.1476s-0.37104-0.6944-0.64977-0.9724zm13.971 7.17c-0.0768 0.5523-0.306 1.0723-0.6619 1.5016s-0.8245 0.7509-1.353 0.9288c-0.5285 0.1778-1.0962 0.2047-1.6392 0.0778-0.543-0.1268-1.0399-0.4026-1.4349-0.7962l-1.72-1.72c-0.2777-0.2792-0.6079-0.5005-0.9716-0.6512s-0.7537-0.2278-1.1474-0.2268h-2.755l15.027-15.022-3.344 15.908z" fill="#fff"/>
</g>
<defs>
<clipPath id="a">
<rect width="24" height="24" fill="#fff"/>
</clipPath>
</defs>
</svg>
