<?xml version="1.0" encoding="UTF-8"?>
<svg fill="none" viewBox="0 0 24 24" xmlns="http://www.w3.org/2000/svg">
<g clip-path="url(#a)">
<path d="m23 18h-3v-9c-0.0016-1.3256-0.5289-2.5964-1.4662-3.5338-0.9374-0.93734-2.2082-1.4646-3.5338-1.4662h-9v-3c0-0.26522-0.10536-0.51957-0.29289-0.70711-0.18754-0.18754-0.44189-0.29289-0.70711-0.29289s-0.51957 0.10536-0.70711 0.29289c-0.18753 0.18754-0.29289 0.44189-0.29289 0.70711v3h-3c-0.26522 0-0.51957 0.10536-0.70711 0.29289-0.18754 0.18754-0.29289 0.44189-0.29289 0.70711s0.10536 0.51957 0.29289 0.70711c0.18754 0.18753 0.44189 0.29289 0.70711 0.29289h3v9c0.00159 1.3256 0.52888 2.5964 1.4662 3.5338 0.93734 0.9373 2.2082 1.4646 3.5338 1.4662h9v3c0 0.2652 0.1054 0.5196 0.2929 0.7071s0.4419 0.2929 0.7071 0.2929 0.5196-0.1054 0.7071-0.2929 0.2929-0.4419 0.2929-0.7071v-3h3c0.2652 0 0.5196-0.1054 0.7071-0.2929s0.2929-0.4419 0.2929-0.7071-0.1054-0.5196-0.2929-0.7071-0.4419-0.2929-0.7071-0.2929zm-14 0c-0.79565 0-1.5587-0.3161-2.1213-0.8787s-0.87868-1.3257-0.87868-2.1213v-9h9c0.7956 0 1.5587 0.31607 2.1213 0.87868s0.8787 1.3257 0.8787 2.1213v9h-9z" fill="#fff"/>
</g>
<defs>
<clipPath id="a">
<rect width="24" height="24" fill="#fff"/>
</clipPath>
</defs>
</svg>
